<svg width="14" height="14" viewBox="0 0 14 14" fill="none" xmlns="http://www.w3.org/2000/svg">
<g clip-path="url(#clip0_1_604)">
<path d="M8.34665 7.23584C8.34665 6.99448 8.15117 6.7987 7.90978 6.79834C6.23465 6.79585 4.86979 5.43099 4.8673 3.75586C4.86694 3.51449 4.67116 3.31898 4.4298 3.31898C4.18844 3.31898 3.99265 3.51446 3.9923 3.75586C3.98981 5.43099 2.62495 6.79585 0.949788 6.79834C0.708424 6.7987 0.512917 6.99448 0.512917 7.23584C0.512917 7.4772 0.70837 7.67296 0.94976 7.67334C2.62495 7.67586 3.98981 9.04072 3.9923 10.7158C3.99265 10.9572 4.18844 11.1527 4.4298 11.1527C4.67116 11.1527 4.86694 10.9572 4.8673 10.7158C4.86979 9.04072 6.23465 7.67586 7.90981 7.67334C8.1512 7.67296 8.34665 7.4772 8.34665 7.23584ZM5.14109 7.94713C4.85174 8.23646 4.61317 8.56308 4.42983 8.91622C4.24649 8.56308 4.00791 8.23646 3.71856 7.94711C3.42921 7.65778 3.10256 7.41918 2.74944 7.23584C3.10259 7.0525 3.42921 6.81393 3.71856 6.52457C4.00791 6.23522 4.24649 5.9086 4.42983 5.55548C4.61317 5.9086 4.85174 6.23522 5.14109 6.52457C5.43044 6.81393 5.75707 7.0525 6.11021 7.23584C5.75707 7.41918 5.43044 7.65778 5.14109 7.94713ZM12.6303 10.7281C11.5512 10.7265 10.6719 9.84717 10.6702 8.76799C10.6699 8.5266 10.4741 8.33112 10.2327 8.33112C9.99138 8.33112 9.79563 8.52657 9.79525 8.76799C9.79363 9.84717 8.91434 10.7265 7.83516 10.7281C7.59377 10.7285 7.39829 10.9242 7.39829 11.1656C7.39829 11.4069 7.59374 11.6027 7.83516 11.6031C8.91434 11.6047 9.79363 12.484 9.79525 13.5632C9.79563 13.8045 9.99138 14 10.2327 14C10.4741 14 10.6699 13.8046 10.6702 13.5632C10.6719 12.484 11.5512 11.6047 12.6303 11.6031C12.8717 11.6027 13.0672 11.4069 13.0672 11.1656C13.0672 10.9242 12.8717 10.7284 12.6303 10.7281ZM10.2328 12.0547C10.0059 11.6961 9.70221 11.3924 9.34364 11.1655C9.70221 10.9387 10.0059 10.635 10.2328 10.2764C10.4596 10.635 10.7633 10.9387 11.1219 11.1655C10.7633 11.3924 10.4597 11.6961 10.2328 12.0547ZM13.0502 2.81679C11.7399 2.81485 10.6722 1.74721 10.6703 0.436871C10.6699 0.195453 10.4741 0 10.2328 0C9.99141 0 9.79565 0.195453 9.79527 0.436871C9.79333 1.74721 8.72569 2.81485 7.41538 2.81679C7.17399 2.81717 6.97851 3.01293 6.97851 3.25429C6.97851 3.49565 7.17396 3.69141 7.41538 3.69179C8.72569 3.69373 9.79333 4.76137 9.79527 6.07168C9.79565 6.31307 9.99141 6.50855 10.2328 6.50855C10.4741 6.50855 10.6699 6.3131 10.6703 6.07168C10.6722 4.76137 11.7399 3.69373 13.0502 3.69179C13.2916 3.69141 13.4871 3.49565 13.4871 3.25429C13.4871 3.01293 13.2916 2.81714 13.0502 2.81679ZM10.2328 4.44694C9.94572 3.95242 9.53464 3.54134 9.04012 3.25429C9.53464 2.96723 9.94572 2.55614 10.2328 2.06161C10.5198 2.55614 10.9309 2.96723 11.4255 3.25429C10.9309 3.54131 10.5198 3.9524 10.2328 4.44694Z" fill="black"/>
</g>
<defs>
<clipPath id="clip0_1_604">
<rect width="14" height="14" fill="white"/>
</clipPath>
</defs>
</svg>
