<svg width="60" height="60" viewBox="0 0 60 60" fill="none" xmlns="http://www.w3.org/2000/svg">
<rect width="60" height="60" rx="30" fill="#D16DF2"/>
<path d="M36.0097 26.4428C36.0368 26.2476 35.9852 26.0497 35.8664 25.8925C35.7476 25.7354 35.5713 25.6318 35.3761 25.6046C35.0806 25.5641 34.793 25.479 34.5231 25.3521C33.9183 25.063 33.4248 24.5837 33.1181 23.9876C33.0415 23.8399 32.9177 23.7221 32.7664 23.6529C32.6151 23.5837 32.445 23.567 32.2832 23.6056C32.1215 23.6451 31.9777 23.7377 31.8748 23.8685C31.7719 23.9994 31.7158 24.161 31.7156 24.3275V30.194C31.1498 29.8041 30.4789 29.5952 29.7917 29.5951C27.9124 29.5951 26.3828 31.1246 26.3828 33.0048C26.3828 34.885 27.9124 36.4145 29.7917 36.4145C31.6711 36.4145 33.2014 34.885 33.2014 33.0048V26.2918C33.7854 26.7085 34.4617 26.9774 35.1724 27.0755C35.3673 27.1026 35.565 27.0511 35.722 26.9325C35.879 26.8138 35.9825 26.6377 36.0097 26.4428ZM29.7917 34.9295C28.7316 34.9295 27.8686 34.0666 27.8686 33.0056C27.8686 31.9447 28.7316 31.0817 29.7917 31.0817C30.8527 31.0817 31.7156 31.9447 31.7156 33.0056C31.7156 34.0666 30.8527 34.9295 29.7917 34.9295Z" fill="white"/>
<path d="M37.6432 17.7076H24.7567C21.531 17.7076 18.9075 20.3311 18.9075 23.5569V36.4434C18.9075 39.6691 21.531 42.2926 24.7567 42.2926H34.3432C34.5401 42.2926 34.729 42.2144 34.8682 42.0752C35.0075 41.9359 35.0857 41.7471 35.0857 41.5501C35.0857 41.3532 35.0075 41.1644 34.8682 41.0251C34.729 40.8859 34.5401 40.8076 34.3432 40.8076H24.7567C23.5997 40.8063 22.4903 40.3461 21.6722 39.5279C20.854 38.7098 20.3938 37.6005 20.3925 36.4434V23.5569C20.3938 22.3998 20.854 21.2905 21.6722 20.4723C22.4903 19.6542 23.5997 19.194 24.7567 19.1926H37.6432C38.8003 19.194 39.9096 19.6542 40.7278 20.4723C41.5459 21.2905 42.0062 22.3998 42.0075 23.5569V33.1434C42.0075 33.3403 42.0857 33.5292 42.2249 33.6684C42.3642 33.8077 42.553 33.8859 42.75 33.8859C42.9469 33.8859 43.1357 33.8077 43.275 33.6684C43.4142 33.5292 43.4925 33.3403 43.4925 33.1434V23.5569C43.4925 20.3311 40.869 17.7076 37.6432 17.7076Z" fill="white"/>
<path d="M41.6577 36.978H39.6637V34.984C39.6637 34.787 39.5854 34.5982 39.4462 34.4589C39.3069 34.3197 39.1181 34.2415 38.9212 34.2415C38.7242 34.2415 38.5354 34.3197 38.3961 34.4589C38.2569 34.5982 38.1787 34.787 38.1787 34.984V36.978H36.1846C35.9877 36.978 35.7989 37.0562 35.6596 37.1955C35.5204 37.3347 35.4421 37.5236 35.4421 37.7205C35.4421 37.9174 35.5204 38.1063 35.6596 38.2455C35.7989 38.3848 35.9877 38.463 36.1846 38.463H38.1787V40.457C38.1787 40.6539 38.2569 40.8428 38.3961 40.982C38.5354 41.1213 38.7242 41.1995 38.9212 41.1995C39.1181 41.1995 39.3069 41.1213 39.4462 40.982C39.5854 40.8428 39.6637 40.6539 39.6637 40.457V38.463H41.6577C41.8546 38.463 42.0435 38.3848 42.1827 38.2455C42.322 38.1063 42.4002 37.9174 42.4002 37.7205C42.4002 37.5236 42.322 37.3347 42.1827 37.1955C42.0435 37.0562 41.8546 36.978 41.6577 36.978Z" fill="white"/>
</svg>
