<svg width="14" height="14" viewBox="0 0 14 14" fill="none" xmlns="http://www.w3.org/2000/svg">
<path d="M11.9648 3.0625H10.0861L9.86738 2.40625C9.76194 2.0876 9.55866 1.81035 9.28647 1.61396C9.01428 1.41758 8.68707 1.31209 8.35144 1.3125H5.64856C5.31302 1.31224 4.98594 1.41781 4.71385 1.61418C4.44176 1.81054 4.23853 2.08771 4.13306 2.40625L3.91388 3.0625H2.03525C1.61164 3.06296 1.20552 3.23145 0.905982 3.53098C0.606446 3.83052 0.437963 4.23664 0.4375 4.66025V11.0915C0.438426 11.5148 0.607113 11.9205 0.906599 12.2196C1.20608 12.5188 1.61195 12.687 2.03525 12.6875H11.9665C12.3898 12.6866 12.7955 12.5179 13.0946 12.2184C13.3938 11.9189 13.562 11.5131 13.5625 11.0898V4.6585C13.5616 4.2352 13.3929 3.82952 13.0934 3.53036C12.7939 3.23121 12.3881 3.06296 11.9648 3.0625ZM12.6875 11.0898C12.6873 11.2814 12.611 11.4651 12.4756 11.6006C12.3401 11.736 12.1564 11.8123 11.9648 11.8125H2.03525C1.84364 11.8123 1.65994 11.736 1.52444 11.6006C1.38895 11.4651 1.31273 11.2814 1.3125 11.0898V4.6585C1.31319 4.46719 1.38962 4.28394 1.52506 4.14883C1.6605 4.01371 1.84394 3.93773 2.03525 3.9375H4.22931C4.3211 3.93743 4.41054 3.9085 4.48497 3.85479C4.5594 3.80109 4.61506 3.72533 4.64406 3.63825L4.963 2.68144C5.01089 2.53752 5.1029 2.41235 5.22596 2.32368C5.34902 2.23502 5.49689 2.18737 5.64856 2.1875H8.35144C8.50318 2.18734 8.65112 2.23502 8.7742 2.32378C8.89728 2.41254 8.98924 2.53784 9.037 2.68188L9.35594 3.63825C9.38494 3.72533 9.4406 3.80109 9.51503 3.85479C9.58946 3.9085 9.6789 3.93743 9.77069 3.9375H11.9648C12.1564 3.93773 12.3401 4.01395 12.4756 4.14945C12.611 4.28494 12.6873 4.46864 12.6875 4.66025V11.0898Z" fill="#292929"/>
<path d="M7 4.375C6.35103 4.375 5.71664 4.56744 5.17704 4.92799C4.63744 5.28854 4.21687 5.801 3.96852 6.40057C3.72017 7.00014 3.65519 7.65989 3.7818 8.29639C3.90841 8.93289 4.22092 9.51755 4.67981 9.97644C5.1387 10.4353 5.72336 10.7478 6.35986 10.8745C6.99636 11.0011 7.65611 10.9361 8.25568 10.6877C8.85525 10.4394 9.36771 10.0188 9.72826 9.47921C10.0888 8.93962 10.2813 8.30522 10.2813 7.65625C10.2803 6.78629 9.93433 5.95223 9.31917 5.33708C8.70402 4.72193 7.86996 4.37593 7 4.375ZM7 10.0625C6.52409 10.0625 6.05887 9.92138 5.66316 9.65697C5.26745 9.39257 4.95904 9.01677 4.77692 8.57708C4.59479 8.1374 4.54714 7.65358 4.63999 7.18681C4.73283 6.72005 4.96201 6.29129 5.29853 5.95477C5.63505 5.61825 6.0638 5.38908 6.53057 5.29624C6.99733 5.20339 7.48115 5.25104 7.92083 5.43316C8.36052 5.61529 8.73632 5.9237 9.00072 6.31941C9.26513 6.71511 9.40625 7.18034 9.40625 7.65625C9.40556 8.29421 9.15182 8.90585 8.70071 9.35696C8.2496 9.80807 7.63797 10.0618 7 10.0625Z" fill="#292929"/>
<path d="M11.375 5.6875C11.6166 5.6875 11.8125 5.49162 11.8125 5.25C11.8125 5.00838 11.6166 4.8125 11.375 4.8125C11.1334 4.8125 10.9375 5.00838 10.9375 5.25C10.9375 5.49162 11.1334 5.6875 11.375 5.6875Z" fill="#292929"/>
</svg>
