<svg width="20" height="19" viewBox="0 0 20 19" fill="none" xmlns="http://www.w3.org/2000/svg">
<path d="M15.5261 2.3537C14.0083 0.835889 11.9903 0 9.84378 0C7.6973 0 5.67921 0.835889 4.16144 2.3537C2.64363 3.87155 1.80774 5.88955 1.80774 8.036C1.80774 12.3782 5.91345 15.9899 8.11919 17.9302C8.42571 18.1998 8.69042 18.4327 8.90131 18.6297C9.16553 18.8765 9.50467 18.9999 9.84374 18.9999C10.1829 18.9999 10.5219 18.8765 10.7862 18.6297C10.9971 18.4327 11.2618 18.1998 11.5683 17.9302C13.7741 15.9899 17.8798 12.3782 17.8798 8.036C17.8797 5.88955 17.0439 3.87155 15.5261 2.3537ZM10.8332 17.0946C10.5199 17.3701 10.2495 17.6081 10.0264 17.8164C9.92397 17.912 9.76351 17.9121 9.66101 17.8164C9.43802 17.608 9.16749 17.3701 8.85425 17.0945C6.78058 15.2704 2.92065 11.875 2.92065 8.03603C2.92065 4.21867 6.0263 1.11302 9.8437 1.11302C13.6611 1.11302 16.7667 4.21867 16.7667 8.03603C16.7668 11.875 12.9069 15.2704 10.8332 17.0946Z" fill="#292929"/>
<path d="M9.84375 4.19104C7.89102 4.19104 6.30237 5.77966 6.30237 7.73239C6.30237 9.68512 7.89102 11.2737 9.84375 11.2737C11.7965 11.2737 13.3851 9.68512 13.3851 7.73239C13.3851 5.77966 11.7965 4.19104 9.84375 4.19104ZM9.84375 10.1607C8.50474 10.1607 7.41535 9.07133 7.41535 7.73235C7.41535 6.39337 8.50474 5.30399 9.84375 5.30399C11.1828 5.30399 12.2721 6.39337 12.2721 7.73235C12.2721 9.07133 11.1828 10.1607 9.84375 10.1607Z" fill="#292929"/>
</svg>
