<svg width="15" height="15" viewBox="0 0 15 15" fill="none" xmlns="http://www.w3.org/2000/svg">
<path d="M14.6251 3.16079L12.3819 0.680433C12.1938 0.471 11.9446 0.299967 11.6552 0.181611C11.3658 0.0632559 11.0445 0.0010122 10.7183 7.62939e-05H4.091C3.54851 7.62939e-05 3.02824 0.1694 2.64464 0.470798C2.26105 0.772195 2.04554 1.18098 2.04554 1.60722C1.50306 1.60722 0.982788 1.77654 0.599191 2.07794C0.215594 2.37934 9.15527e-05 2.78812 9.15527e-05 3.21436V13.3929C9.15527e-05 13.8192 0.215594 14.228 0.599191 14.5294C0.982788 14.8308 1.50306 15.0001 2.04554 15.0001H10.9092C11.4517 15.0001 11.9719 14.8308 12.3555 14.5294C12.7391 14.228 12.9546 13.8192 12.9546 13.3929C13.4971 13.3929 14.0174 13.2236 14.401 12.9222C14.7846 12.6208 15.0001 12.212 15.0001 11.7858V4.09293C15.0013 3.75916 14.8702 3.43337 14.6251 3.16079ZM13.0024 3.21436H12.2728C12.092 3.21436 11.9186 3.15792 11.7907 3.05745C11.6628 2.95699 11.591 2.82073 11.591 2.67865V1.65008L13.0024 3.21436ZM10.9092 13.9286H2.04554C1.86472 13.9286 1.69129 13.8722 1.56343 13.7717C1.43556 13.6713 1.36373 13.535 1.36373 13.3929V3.21436C1.36373 3.07228 1.43556 2.93602 1.56343 2.83555C1.69129 2.73509 1.86472 2.67865 2.04554 2.67865V11.7858C2.04554 12.212 2.26105 12.6208 2.64464 12.9222C3.02824 13.2236 3.54851 13.3929 4.091 13.3929H11.591C11.591 13.535 11.5192 13.6713 11.3913 13.7717C11.2634 13.8722 11.09 13.9286 10.9092 13.9286ZM13.6364 11.7858C13.6364 11.9279 13.5646 12.0641 13.4367 12.1646C13.3089 12.2651 13.1355 12.3215 12.9546 12.3215H4.091C3.91017 12.3215 3.73675 12.2651 3.60888 12.1646C3.48101 12.0641 3.40918 11.9279 3.40918 11.7858V1.60722C3.40918 1.46514 3.48101 1.32888 3.60888 1.22841C3.73675 1.12795 3.91017 1.0715 4.091 1.0715H10.2274V2.67865C10.2274 3.10489 10.4429 3.51367 10.8265 3.81507C11.2101 4.11647 11.7303 4.28579 12.2728 4.28579H13.6364V11.7858Z" fill="#292929"/>
</svg>
