<svg width="16" height="16" viewBox="0 0 16 16" fill="none" xmlns="http://www.w3.org/2000/svg">
<path d="M11.2439 7.17478V15H1.00006V7.0325H13.5204" stroke="#292929" stroke-width="0.569106" stroke-miterlimit="22.9256" stroke-linecap="round" stroke-linejoin="round"/>
<path fill-rule="evenodd" clip-rule="evenodd" d="M2.28055 8.31296H9.96345V13.7195H2.28055V8.31296Z" stroke="#292929" stroke-width="0.569106" stroke-miterlimit="22.9256" stroke-linecap="round" stroke-linejoin="round"/>
<path d="M2.29477 12.4295L4.86939 9.85488L6.45139 11.4368L7.37459 10.5137L9.94921 13.0883M4.7562 6.89022V0.999939H15.0001V8.31295H11.3862" stroke="#292929" stroke-width="0.569106" stroke-miterlimit="22.9256" stroke-linecap="round" stroke-linejoin="round"/>
<path fill-rule="evenodd" clip-rule="evenodd" d="M11.0525 4.34328L9.07603 5.48325C8.89688 5.58691 8.6675 5.52585 8.56372 5.34687C8.53063 5.28976 8.51227 5.22528 8.51236 5.15917V2.87413C8.51236 2.6668 8.68062 2.49872 8.88814 2.49872C8.96605 2.49872 9.03841 2.52239 9.0984 2.56294L11.0569 3.69256C11.236 3.79622 11.2972 4.02537 11.1934 4.20436C11.1598 4.26251 11.1111 4.31051 11.0525 4.34328Z" stroke="#292929" stroke-width="0.569106" stroke-miterlimit="22.9256" stroke-linecap="round" stroke-linejoin="round"/>
</svg>
