<svg width="15" height="17" viewBox="0 0 15 17" fill="none" xmlns="http://www.w3.org/2000/svg">
<path d="M7.425 16.2628C7.32894 16.2628 7.2342 16.2404 7.14829 16.1975C7.06237 16.1545 6.98764 16.0921 6.93 16.0153L5.25938 13.7878H3.09375C2.27354 13.7868 1.4872 13.4605 0.907224 12.8806C0.327246 12.3006 0.000982487 11.5143 0 10.694V3.26904C0.000982487 2.44883 0.327246 1.66249 0.907224 1.08252C1.4872 0.502539 2.27354 0.176275 3.09375 0.175293H11.7563C12.5765 0.176275 13.3628 0.502539 13.9428 1.08252C14.5228 1.66249 14.849 2.44883 14.85 3.26904V10.694C14.849 11.5143 14.5228 12.3006 13.9428 12.8806C13.3628 13.4605 12.5765 13.7868 11.7563 13.7878H9.59063L7.92 16.0153C7.86237 16.0921 7.78763 16.1545 7.70171 16.1975C7.6158 16.2404 7.52106 16.2628 7.425 16.2628ZM3.09375 1.41279C2.60144 1.41279 2.1293 1.60836 1.78118 1.95648C1.43307 2.30459 1.2375 2.77674 1.2375 3.26904V10.694C1.2375 11.1864 1.43307 11.6585 1.78118 12.0066C2.1293 12.3547 2.60144 12.5503 3.09375 12.5503H5.56875C5.66481 12.5503 5.75955 12.5727 5.84546 12.6156C5.93138 12.6586 6.00612 12.7209 6.06375 12.7978L7.425 14.6126L8.78625 12.7978C8.84389 12.7209 8.91862 12.6586 9.00454 12.6156C9.09045 12.5727 9.18519 12.5503 9.28125 12.5503H11.7563C12.2486 12.5503 12.7207 12.3547 13.0688 12.0066C13.4169 11.6585 13.6125 11.1864 13.6125 10.694V3.26904C13.6125 2.77674 13.4169 2.30459 13.0688 1.95648C12.7207 1.60836 12.2486 1.41279 11.7563 1.41279H3.09375Z" fill="#292929"/>
<path d="M13.4697 13.0949C13.3283 13.0949 13.1912 13.0464 13.0812 12.9575C12.9712 12.8687 12.895 12.7449 12.8652 12.6067C12.5937 11.3659 11.9062 10.2552 10.9167 9.45886C9.92724 8.66248 8.69526 8.22828 7.42511 8.22828C6.15497 8.22828 4.92299 8.66248 3.93352 9.45886C2.94405 10.2552 2.25655 11.3659 1.98506 12.6067C1.95044 12.7671 1.85351 12.9072 1.7156 12.9962C1.57768 13.0851 1.41009 13.1156 1.24968 13.081C1.08927 13.0464 0.949184 12.9494 0.86024 12.8115C0.771297 12.6736 0.740782 12.506 0.775407 12.3456C1.10657 10.8283 1.94666 9.46992 3.15623 8.49587C4.3658 7.52182 5.87211 6.99072 7.42511 6.99072C8.97812 6.99072 10.4844 7.52182 11.694 8.49587C12.9036 9.46992 13.7437 10.8283 14.0748 12.3456C14.1093 12.506 14.0787 12.6736 13.9897 12.8114C13.9008 12.9493 13.7606 13.0461 13.6002 13.0807C13.5574 13.0902 13.5136 13.095 13.4697 13.0949Z" fill="#292929"/>
<path d="M7.42517 8.219C6.81329 8.219 6.21514 8.03755 5.70638 7.69761C5.19761 7.35766 4.80108 6.87448 4.56692 6.30917C4.33276 5.74386 4.27149 5.12181 4.39087 4.52169C4.51024 3.92156 4.80489 3.3703 5.23756 2.93763C5.67023 2.50497 6.22148 2.21031 6.82161 2.09094C7.42174 1.97157 8.04379 2.03283 8.6091 2.26699C9.17441 2.50115 9.65759 2.89769 9.99753 3.40645C10.3375 3.91521 10.5189 4.51336 10.5189 5.12525C10.5179 5.94546 10.1917 6.73179 9.6117 7.31177C9.03172 7.89175 8.24538 8.21801 7.42517 8.219ZM7.42517 3.269C7.05804 3.269 6.69915 3.37786 6.3939 3.58183C6.08864 3.7858 5.85072 4.0757 5.71022 4.41489C5.56973 4.75408 5.53297 5.12731 5.60459 5.48738C5.67621 5.84746 5.853 6.17821 6.11261 6.43781C6.37221 6.69741 6.70296 6.87421 7.06304 6.94583C7.42311 7.01745 7.79634 6.98069 8.13553 6.8402C8.47471 6.6997 8.76462 6.46178 8.96859 6.15652C9.17256 5.85126 9.28142 5.49238 9.28142 5.12525C9.28142 4.63294 9.08585 4.16079 8.73774 3.81268C8.38963 3.46456 7.91748 3.269 7.42517 3.269Z" fill="#292929"/>
</svg>
