<svg width="15" height="11" viewBox="0 0 15 11" fill="none" xmlns="http://www.w3.org/2000/svg">
<path d="M7.02875 7.375H2.97125L1.72125 10.5H0.375L4.375 0.5H5.625L9.625 10.5H8.27875L7.02875 7.375ZM6.52875 6.125L5 2.30313L3.47125 6.125H6.52875ZM13.125 5.83437V5.5H14.375V10.5H13.125V10.1656C12.7449 10.3848 12.3139 10.5001 11.8751 10.5C11.4364 10.4999 11.0054 10.3842 10.6255 10.1648C10.2456 9.94532 9.9301 9.62975 9.71077 9.24976C9.49144 8.86977 9.37597 8.43875 9.37597 8C9.37597 7.56125 9.49144 7.13023 9.71077 6.75024C9.9301 6.37025 10.2456 6.05468 10.6255 5.83522C11.0054 5.61576 11.4364 5.50015 11.8751 5.5C12.3139 5.49985 12.7449 5.61517 13.125 5.83437ZM11.875 9.25C12.2065 9.25 12.5245 9.1183 12.7589 8.88388C12.9933 8.64946 13.125 8.33152 13.125 8C13.125 7.66848 12.9933 7.35054 12.7589 7.11612C12.5245 6.8817 12.2065 6.75 11.875 6.75C11.5435 6.75 11.2255 6.8817 10.9911 7.11612C10.7567 7.35054 10.625 7.66848 10.625 8C10.625 8.33152 10.7567 8.64946 10.9911 8.88388C11.2255 9.1183 11.5435 9.25 11.875 9.25Z" fill="black"/>
</svg>
