<svg width="14" height="14" viewBox="0 0 14 14" fill="none" xmlns="http://www.w3.org/2000/svg">
<g clip-path="url(#clip0_1_165)">
<path d="M7.08983 5.19571C6.30114 5.19571 5.66174 5.83507 5.66174 6.62379C5.66174 7.41248 6.3011 8.05187 7.08983 8.05187C7.87852 8.05187 8.51791 7.41251 8.51791 6.62379C8.51791 5.83507 7.87855 5.19571 7.08983 5.19571ZM7.08983 7.37181C6.67669 7.37181 6.34178 7.0369 6.34178 6.62376C6.34178 6.21062 6.67669 5.87571 7.08983 5.87571C7.50296 5.87571 7.83787 6.21062 7.83787 6.62376C7.83787 7.0369 7.50296 7.37181 7.08983 7.37181Z" fill="#292929"/>
<path d="M12.7851 1.93149L3.50266 0.877467C3.32454 0.852146 3.14308 0.864809 2.9702 0.914624C2.79733 0.964438 2.63695 1.05028 2.49962 1.16649C2.36217 1.27308 2.24765 1.40631 2.16293 1.55822C2.07821 1.71013 2.02504 1.87758 2.0066 2.05053L1.8366 3.44461H1.30954C0.561494 3.44461 0.00045944 4.10762 0.00045944 4.85567V11.809C-0.0183816 12.5223 0.544606 13.1159 1.25796 13.1347C1.27515 13.1352 1.29236 13.1353 1.30954 13.1351H10.643C11.3911 13.1351 12.0711 12.5571 12.0711 11.809V11.537C12.303 11.4922 12.523 11.3996 12.7171 11.265C12.9926 11.0331 13.1689 10.7047 13.2101 10.347L13.9922 3.44461C14.0719 2.69483 13.5339 2.02036 12.7851 1.93149ZM11.3911 11.809C11.3911 12.183 11.017 12.455 10.643 12.455H1.30954C0.97167 12.465 0.689737 12.1991 0.679812 11.8612C0.679292 11.8438 0.67952 11.8264 0.680496 11.809V10.5509L3.31564 8.61285C3.6322 8.36981 4.07807 8.39142 4.3697 8.66385L6.2228 10.2959C6.50422 10.5322 6.85846 10.6643 7.22587 10.67C7.51313 10.6735 7.7957 10.5969 8.04193 10.4489L11.3911 8.51084V11.809H11.3911ZM11.3911 7.7118L7.68486 9.87091C7.52961 9.96288 7.34953 10.0041 7.16972 9.98889C6.98992 9.97366 6.81935 9.9027 6.68179 9.78592L4.81171 8.13682C4.27573 7.67627 3.49234 7.64802 2.9246 8.06881L0.680496 9.70089V4.85567C0.680496 4.48165 0.935517 4.12464 1.30954 4.12464H10.643C11.0426 4.14121 11.3653 4.45659 11.3911 4.85567V7.7118ZM13.3128 3.35281C13.3126 3.35505 13.3124 3.35733 13.3121 3.35958L12.5131 10.2619C12.5138 10.3502 12.4942 10.4375 12.4559 10.5171C12.4176 10.5967 12.3615 10.6664 12.2921 10.7209C12.2241 10.789 12.0711 10.823 12.0711 10.857V4.85567C12.0442 4.08117 11.4177 3.46215 10.643 3.44461H2.51661L2.66961 2.11854C2.7028 1.94682 2.79259 1.79119 2.92463 1.6765C3.07375 1.57342 3.25404 1.52534 3.43468 1.54048L12.7002 2.61153C13.074 2.64703 13.3483 2.97892 13.3128 3.35281Z" fill="#292929"/>
</g>
<defs>
<clipPath id="clip0_1_165">
<rect width="14" height="14" fill="white"/>
</clipPath>
</defs>
</svg>
