<svg width="13" height="13" viewBox="0 0 13 13" fill="none" xmlns="http://www.w3.org/2000/svg">
<g clip-path="url(#clip0_1_226)">
<path d="M11.3388 0H1.66118C0.74519 0 0 0.745215 0 1.66121V11.3388C0 12.2548 0.74519 13 1.66118 13H11.3388C12.2548 13 13 12.2548 13 11.3388V1.66121C13 0.745215 12.2548 0 11.3388 0ZM12.2343 11.3388C12.2343 11.8326 11.8326 12.2343 11.3388 12.2343H1.66118C1.16741 12.2343 0.765705 11.8326 0.765705 11.3388V9.94216L3.28585 7.79789C3.33025 7.76001 3.38662 7.73904 3.44498 7.73869C3.50335 7.73834 3.55996 7.75863 3.60481 7.79599L5.18344 9.10686C5.33566 9.23322 5.5591 9.22287 5.69898 9.08284L9.44991 5.32619C9.5177 5.25827 9.59674 5.25167 9.638 5.25378C9.67913 5.25588 9.75721 5.27056 9.81772 5.34508L12.2343 8.32061L12.2343 11.3388ZM12.2343 7.10595L10.4121 4.86228C10.3225 4.75213 10.2108 4.662 10.0842 4.59771C9.95767 4.53341 9.81901 4.49638 9.67723 4.48901C9.39113 4.47454 9.11059 4.58225 8.90805 4.78512L5.40394 8.29463L4.09404 7.20693C3.91062 7.05416 3.67911 6.97115 3.44041 6.97259C3.20171 6.97402 2.97121 7.05979 2.78964 7.21475L0.765705 8.93679V1.66121C0.765705 1.16744 1.16741 0.765731 1.66118 0.765731H11.3388C11.8326 0.765731 12.2343 1.16744 12.2343 1.66121V7.10595Z" fill="black"/>
<path d="M4.09232 1.59948C3.07428 1.59948 2.24609 2.42772 2.24609 3.44571C2.24609 4.46372 3.07431 5.29194 4.09232 5.29194C5.11033 5.29194 5.93855 4.46372 5.93855 3.44571C5.93855 2.4277 5.11036 1.59948 4.09232 1.59948ZM4.09232 4.52623C3.49651 4.52623 3.0118 4.0415 3.0118 3.44571C3.0118 2.84989 3.49651 2.36518 4.09232 2.36518C4.68814 2.36518 5.17285 2.84992 5.17285 3.44571C5.17285 4.0415 4.68814 4.52623 4.09232 4.52623Z" fill="black"/>
</g>
<defs>
<clipPath id="clip0_1_226">
<rect width="13" height="13" fill="white"/>
</clipPath>
</defs>
</svg>
