<svg width="18" height="17" viewBox="0 0 18 17" fill="none" xmlns="http://www.w3.org/2000/svg">
<path d="M5.09157 1.25385C3.24157 1.25385 1.74164 2.75378 1.74164 4.60378V12.4203C1.74164 14.2703 3.24157 15.7702 5.09157 15.7702H12.9081C14.7581 15.7702 16.258 14.2703 16.258 12.4203V8.51202C16.258 8.36395 16.3168 8.22194 16.4215 8.11723C16.5262 8.01252 16.6682 7.9537 16.8163 7.9537C16.9644 7.9537 17.1064 8.01252 17.2111 8.11723C17.3158 8.22194 17.3746 8.36395 17.3746 8.51202V12.4203C17.3746 14.8872 15.375 16.8868 12.9081 16.8868H5.09157C2.62463 16.8868 0.625 14.8872 0.625 12.4203V4.60378C0.625 2.13683 2.62463 0.137207 5.09157 0.137207H8.99981C9.14789 0.137207 9.2899 0.19603 9.39461 0.300735C9.49931 0.405441 9.55814 0.547452 9.55814 0.695528C9.55814 0.843604 9.49931 0.985615 9.39461 1.09032C9.2899 1.19503 9.14789 1.25385 8.99981 1.25385H5.09157Z" fill="#292929"/>
<path d="M9.80812 4.38352C9.72299 4.34098 9.62841 4.32091 9.53335 4.3252C9.4383 4.32949 9.34591 4.35801 9.26497 4.40805C9.18403 4.45808 9.11722 4.52798 9.07089 4.61109C9.02455 4.6942 9.00023 4.78778 9.00022 4.88294V8.97934C8.61767 8.79788 8.18653 8.74558 7.77169 8.83031C7.35685 8.91504 6.98075 9.13221 6.7 9.44915C6.41924 9.76609 6.24902 10.1656 6.21496 10.5877C6.18089 11.0097 6.28482 11.4314 6.5111 11.7893C6.73738 12.1471 7.07378 12.4218 7.46966 12.572C7.86554 12.7222 8.29948 12.7397 8.70619 12.6219C9.11289 12.5042 9.47035 12.2575 9.72476 11.9191C9.97917 11.5806 10.1168 11.1687 10.1169 10.7453V5.7863L10.9839 6.21983C11.1162 6.28466 11.2688 6.29457 11.4084 6.24741C11.5479 6.20025 11.6632 6.09983 11.729 5.96805C11.7949 5.83627 11.806 5.68379 11.7599 5.54386C11.7139 5.40393 11.6143 5.28788 11.4831 5.221L9.80812 4.38352ZM17.375 3.20797C17.375 3.35605 17.3162 3.49806 17.2115 3.60277C17.1068 3.70747 16.9648 3.76629 16.8167 3.76629H14.8626V5.72042C14.8626 5.86849 14.8038 6.0105 14.6991 6.11521C14.5944 6.21991 14.4523 6.27874 14.3043 6.27874C14.1562 6.27874 14.0142 6.21991 13.9095 6.11521C13.8048 6.0105 13.746 5.86849 13.746 5.72042V3.76629H11.7918C11.6438 3.76629 11.5017 3.70747 11.397 3.60277C11.2923 3.49806 11.2335 3.35605 11.2335 3.20797C11.2335 3.0599 11.2923 2.91789 11.397 2.81318C11.5017 2.70847 11.6438 2.64965 11.7918 2.64965H13.746V0.695528C13.746 0.547452 13.8048 0.405441 13.9095 0.300735C14.0142 0.19603 14.1562 0.137207 14.3043 0.137207C14.4523 0.137207 14.5944 0.19603 14.6991 0.300735C14.8038 0.405441 14.8626 0.547452 14.8626 0.695528V2.64965H16.8167C16.9648 2.64965 17.1068 2.70847 17.2115 2.81318C17.3162 2.91789 17.375 3.0599 17.375 3.20797Z" fill="#292929"/>
</svg>
